<?xml version="1.0" standalone="no"?>
<!DOCTYPE svg PUBLIC "-//W3C//DTD SVG 20010904//EN"
 "http://www.w3.org/TR/2001/REC-SVG-20010904/DTD/svg10.dtd">
<svg version="1.0" xmlns="http://www.w3.org/2000/svg"
 width="64.000000pt" height="64.000000pt" viewBox="0 0 1920.000000 1920.000000"
 preserveAspectRatio="xMidYMid meet">

<g transform="translate(0.000000,1920.000000) scale(0.100000,-0.100000)"
fill="#000000" stroke="none">
<path d="M100 17285 c-14 -37 -15 -34 42 -163 97 -219 374 -700 903 -1567 399
-653 740 -1223 950 -1585 40 -69 112 -192 160 -275 208 -357 622 -1124 985
-1825 187 -362 335 -634 367 -678 13 -17 22 -36 19 -41 -3 -4 -47 -11 -98 -15
-478 -35 -841 -352 -1044 -912 -82 -229 -115 -442 -115 -749 0 -456 85 -958
243 -1430 143 -429 311 -709 546 -907 78 -66 254 -186 514 -352 51 -33 140
-91 198 -129 491 -324 798 -511 1480 -902 190 -109 401 -230 470 -270 69 -40
202 -116 295 -170 949 -549 1513 -839 1990 -1025 1034 -401 1884 -437 2870
-120 559 179 1126 456 2190 1067 143 82 519 298 835 480 750 431 922 534 1326
796 60 40 207 135 325 211 565 366 636 419 769 573 217 252 407 709 524 1263
140 660 141 1204 1 1625 -136 409 -379 717 -672 851 -100 46 -266 91 -368 99
-44 3 -91 8 -103 11 l-24 5 24 32 c38 51 180 311 396 727 329 635 405 778 620
1170 355 648 805 1413 1547 2630 447 733 719 1208 811 1417 48 107 54 129 45
149 -6 13 -16 24 -22 24 -26 0 -172 -149 -316 -321 -291 -351 -855 -1131
-1101 -1524 -100 -160 -342 -549 -392 -630 -215 -348 -769 -1407 -987 -1885
-44 -96 -104 -227 -133 -290 -218 -476 -466 -1104 -540 -1368 -17 -58 -32
-108 -35 -111 -3 -3 -70 3 -148 12 -78 9 -194 21 -257 27 -294 26 -2125 123
-2730 145 -85 3 -183 8 -218 11 l-62 6 52 76 c43 63 574 771 683 912 111 142
371 471 694 875 590 739 769 978 757 1010 -4 13 -10 14 -26 5 -38 -20 -341
-334 -565 -585 -580 -649 -997 -1177 -1702 -2155 l-90 -125 -174 0 c-96 0
-430 7 -744 15 -680 18 -2258 19 -2885 2 -234 -7 -542 -15 -685 -18 l-260 -6
-134 189 c-136 189 -249 345 -480 658 -144 196 -537 694 -685 869 -265 313
-366 429 -571 656 -237 262 -490 514 -505 505 -21 -13 -6 -45 75 -158 109
-152 249 -332 665 -852 408 -512 738 -931 885 -1125 212 -281 402 -536 477
-640 l76 -105 -37 -6 c-20 -4 -119 -9 -221 -13 -247 -9 -1368 -62 -1700 -81
-932 -54 -1078 -64 -1313 -92 -82 -9 -141 -12 -146 -7 -5 5 -21 54 -36 109
-69 257 -294 823 -560 1410 -138 305 -617 1285 -644 1320 -5 5 -47 80 -94 165
-46 85 -134 245 -195 356 -61 110 -190 328 -287 485 -98 156 -214 343 -258
414 -45 72 -111 173 -147 225 -36 52 -140 203 -230 335 -388 566 -882 1187
-1032 1296 l-28 20 -10 -26z m10305 -6059 c613 -5 1330 -21 1403 -32 l33 -5
-83 -107 c-45 -59 -129 -168 -186 -242 -57 -74 -190 -229 -296 -343 -166 -181
-214 -227 -367 -347 -207 -162 -212 -165 -399 -267 -140 -76 -269 -131 -528
-227 -143 -53 -227 -100 -250 -138 -15 -25 -15 -28 2 -47 47 -51 263 -53 481
-4 199 45 391 131 585 261 299 201 569 504 1035 1162 103 146 194 272 203 281
16 15 45 15 352 3 688 -27 2516 -120 2595 -132 l50 -7 -100 -34 c-180 -61
-565 -243 -755 -356 -30 -18 -107 -63 -170 -100 -186 -110 -383 -237 -960
-620 -567 -376 -804 -528 -1075 -685 -178 -104 -527 -287 -650 -342 -44 -20
-123 -55 -175 -78 -407 -181 -938 -314 -1357 -339 -505 -31 -1083 75 -1628
299 -209 86 -281 119 -490 225 -456 232 -683 371 -1655 1017 -261 173 -551
362 -645 420 -439 271 -792 452 -1080 554 -105 37 -108 39 -75 45 19 4 177 15
350 23 173 9 614 32 980 51 366 19 845 41 1065 49 220 9 435 18 477 20 l77 5
48 -67 c447 -634 635 -876 860 -1106 153 -156 182 -181 333 -282 100 -67 200
-126 255 -149 50 -20 119 -50 155 -65 36 -16 133 -42 216 -59 221 -45 389 -41
441 11 l24 25 -27 32 c-33 40 -110 79 -278 141 -390 145 -596 253 -841 442
-198 152 -233 185 -444 417 -199 218 -539 651 -519 662 32 16 1952 52 2283 42
44 -2 373 -5 730 -7z m-6665 -660 c132 -17 215 -35 350 -76 121 -38 290 -103
290 -112 0 -4 -15 -31 -33 -60 -40 -62 -104 -218 -140 -338 -128 -425 -192
-1076 -157 -1605 72 -1088 406 -1831 934 -2075 114 -53 207 -73 335 -72 241 0
427 84 643 291 336 321 540 840 634 1616 21 179 30 579 15 729 -6 65 -10 120
-8 122 2 2 71 -40 153 -94 558 -366 1130 -674 1499 -809 338 -124 608 -197
875 -237 241 -36 442 -45 670 -30 797 53 1586 372 2664 1078 81 53 149 96 151
94 2 -2 -1 -41 -6 -88 -21 -197 -9 -616 26 -880 94 -719 334 -1272 674 -1554
208 -172 371 -238 586 -238 129 0 227 20 331 67 490 223 816 877 921 1845 26
235 26 874 0 1110 -50 459 -157 873 -277 1069 -17 27 -30 53 -30 58 0 21 320
132 470 162 218 44 364 48 540 16 304 -56 553 -306 659 -663 100 -334 52 -951
-117 -1507 -186 -615 -440 -1008 -877 -1357 -428 -341 -820 -588 -1795 -1130
-173 -96 -400 -224 -505 -283 -472 -267 -699 -393 -906 -505 -946 -510 -1517
-727 -2184 -832 -193 -30 -212 -31 -515 -31 -291 0 -328 2 -490 27 -721 110
-1277 326 -2350 911 -220 120 -249 137 -790 442 -195 110 -402 226 -460 258
-58 31 -139 77 -180 100 -41 23 -138 77 -215 120 -803 449 -1335 814 -1661
1139 -150 150 -245 270 -338 429 -281 478 -469 1186 -470 1772 -1 209 8 284
49 435 98 363 370 633 685 679 159 23 209 24 350 7z m942 -322 c26 -13 50 -28
53 -34 4 -6 -14 -44 -39 -85 -223 -356 -344 -973 -315 -1600 13 -292 37 -463
95 -701 128 -527 387 -875 713 -959 76 -19 215 -22 286 -4 266 64 493 310 638
689 75 195 122 402 164 715 23 176 24 713 1 855 -9 52 -14 97 -13 98 2 2 33
-17 68 -42 l65 -46 9 -118 c12 -173 9 -680 -5 -807 -71 -628 -253 -1103 -530
-1380 -320 -323 -751 -320 -1071 5 -316 322 -510 919 -540 1667 -26 664 77
1287 281 1686 56 109 50 106 140 61z m10003 -89 c122 -241 206 -568 252 -975
24 -217 24 -743 0 -960 -75 -667 -259 -1142 -549 -1415 -367 -345 -835 -283
-1162 156 -226 303 -368 764 -421 1369 -18 207 -19 320 -4 535 18 278 14 262
88 314 l64 45 -6 -30 c-32 -161 -34 -734 -2 -973 98 -756 384 -1252 782 -1355
75 -20 230 -21 300 -2 442 118 741 693 804 1546 14 189 6 574 -16 752 -51 423
-162 765 -330 1021 l-17 26 69 35 c37 19 73 34 78 33 6 -2 37 -57 70 -122z
m-9676 -97 c248 -148 584 -369 954 -626 l189 -131 0 -413 c0 -313 -4 -447 -16
-553 -46 -399 -130 -675 -270 -889 -149 -227 -324 -338 -530 -337 -336 1 -606
326 -735 886 -54 233 -65 355 -65 705 0 244 4 344 17 445 33 246 107 515 184
670 49 100 166 295 177 295 4 0 47 -23 95 -52z m9357 -40 c134 -217 213 -422
264 -686 48 -254 54 -327 54 -632 0 -169 -5 -324 -12 -380 -79 -605 -268 -998
-554 -1150 -84 -45 -150 -62 -244 -61 -144 0 -268 55 -391 174 -204 197 -335
527 -400 1007 -14 101 -17 210 -17 569 l-1 443 105 73 c58 40 146 101 195 135
312 217 910 600 936 600 4 0 34 -42 65 -92z"/>
<path d="M7255 5729 c-15 -23 162 -158 367 -282 365 -220 753 -373 1068 -422
146 -23 160 -24 280 -11 120 12 129 15 215 62 101 54 143 90 259 219 44 50 98
100 120 113 39 22 41 23 76 7 21 -10 90 -72 163 -150 114 -120 136 -138 224
-186 95 -51 102 -53 218 -65 108 -11 134 -11 258 7 299 42 715 200 1048 400
239 143 432 290 410 312 -7 7 -43 4 -114 -11 -101 -21 -583 -146 -837 -216
-357 -99 -611 -142 -780 -133 -142 9 -228 38 -387 133 -70 42 -152 85 -180 95
-52 17 -54 17 -110 -2 -31 -10 -88 -39 -127 -63 -201 -123 -286 -154 -441
-163 -177 -10 -412 33 -905 166 -493 133 -769 201 -811 201 -4 0 -11 -5 -14
-11z"/>
</g>
</svg>
